<svg width="29" height="33" viewBox="0 0 29 33" fill="none" xmlns="http://www.w3.org/2000/svg">
<path fill-rule="evenodd" clip-rule="evenodd" d="M8.49721 0.0634594C8.32767 0.193582 8.34772 0.243794 9.13722 1.66568C9.53594 2.38377 9.86219 2.98547 9.86219 3.00277C9.86219 3.02007 9.7435 3.09794 9.59843 3.17581C7.66592 4.21308 6.16877 5.92487 5.51232 7.84777C5.25482 8.60208 5.09112 9.47925 5.09112 10.1049V10.3489H14.4983L23.9055 10.349L23.884 9.91634C23.7863 7.94606 22.8796 6.03785 21.3533 4.5902C20.7706 4.03759 20.0838 3.53682 19.4134 3.17581C19.2688 3.09794 19.1505 3.02007 19.1505 3.00277C19.1505 2.98547 19.4767 2.38409 19.8755 1.6664C20.6779 0.222117 20.7003 0.160894 20.4692 0.0442681C20.3524 -0.0146585 20.2461 -0.0141866 20.1585 0.0456209C20.1204 0.0717021 19.839 0.542454 19.5333 1.0917C19.2276 1.64098 18.8923 2.24173 18.7882 2.42669L18.5988 2.76298L18.3825 2.67344C17.5754 2.33941 16.5299 2.08354 15.5382 1.97727C15.0222 1.92196 13.879 1.92923 13.3587 1.99114C12.4587 2.0982 11.6526 2.29125 10.8591 2.58972L10.4141 2.75709L9.68507 1.44847C9.28412 0.728703 8.91996 0.107945 8.87581 0.069028C8.77396 -0.0208247 8.61016 -0.0232473 8.49721 0.0634594ZM10.5565 5.5642C10.7019 5.62631 10.8811 5.80988 10.9474 5.96467C11.0045 6.09785 11.0045 6.42013 10.9474 6.55331C10.8281 6.83186 10.5362 7.02035 10.2239 7.02035C9.99058 7.02035 9.83981 6.95975 9.67646 6.80037C9.42922 6.55913 9.37772 6.16121 9.55545 5.86532C9.76342 5.51903 10.1666 5.39774 10.5565 5.5642ZM19.0066 5.51874C19.4793 5.65635 19.7047 6.17467 19.48 6.60708C19.2 7.14569 18.4668 7.1702 18.1346 6.65203C18.0588 6.5338 18.0364 6.45883 18.0275 6.29419C18.0179 6.11477 18.029 6.0622 18.1073 5.91449C18.2166 5.70858 18.3832 5.57204 18.5921 5.5172C18.7944 5.46413 18.8192 5.46422 19.0066 5.51874ZM1.74352 10.7562C1.08626 10.9137 0.458402 11.3921 0.188875 11.9409C-0.0146485 12.3553 -0.00555597 12.1017 0.00398823 17.0892L0.0126942 21.6277L0.0972701 21.8398C0.23018 22.1732 0.378824 22.3859 0.661958 22.6482C1.1155 23.0682 1.65894 23.2872 2.25365 23.2895C2.63306 23.2909 2.83755 23.2458 3.18872 23.0831C3.728 22.8332 4.17655 22.2717 4.30117 21.6906C4.34135 21.5033 4.34847 20.8022 4.34896 16.9934C4.34957 12.0302 4.3604 12.2948 4.13805 11.8433C3.86717 11.2934 3.34246 10.8834 2.72899 10.7422C2.46091 10.6806 2.03394 10.6866 1.74352 10.7562ZM26.2179 10.7585C25.6439 10.9053 25.14 11.3019 24.8916 11.8026C24.6512 12.2873 24.6643 11.9889 24.6643 16.9872C24.6643 21.9919 24.6513 21.6982 24.8937 22.1779C24.9997 22.3877 25.0845 22.4991 25.2892 22.6975C25.7144 23.1093 26.1623 23.2921 26.7429 23.2907C27.1403 23.2897 27.3911 23.23 27.7747 23.0451C28.3405 22.7724 28.7332 22.3493 28.9262 21.8047L29 21.5963V16.9872V12.3782L28.9272 12.1737C28.8871 12.0612 28.811 11.8954 28.7579 11.8052C28.5523 11.4553 28.0904 11.0621 27.678 10.8857C27.2372 10.6972 26.6559 10.6465 26.2179 10.7585ZM5.16328 17.8603C5.17314 25.4867 5.14783 24.7517 5.41939 25.2929C5.60902 25.6709 5.99349 26.046 6.38087 26.2311C6.84138 26.451 6.92628 26.4644 7.96889 26.4805L8.8959 26.4948L8.89948 26.7197C8.90145 26.8434 8.91383 27.9498 8.92695 29.1784C8.95336 31.6474 8.94382 31.5377 9.17152 31.9875C9.4022 32.4432 9.91858 32.8251 10.4759 32.9522C10.7772 33.0209 11.2802 33.0148 11.5848 32.9388C12.32 32.7554 12.8687 32.2201 13.0374 31.5217C13.0793 31.3481 13.0867 30.9582 13.0871 28.9031L13.0876 26.4884H14.5063H15.9251L15.9256 28.9031C15.9261 31.5877 15.9214 31.5219 16.1433 31.9627C16.3842 32.4411 16.8991 32.821 17.4889 32.9555C17.8282 33.0329 18.4097 33.0061 18.7322 32.8982C19.3944 32.6766 19.8649 32.1911 20.0428 31.5459C20.0908 31.3715 20.0983 31.0744 20.1084 28.922L20.1197 26.4948L21.0453 26.4798C22.0876 26.463 22.211 26.4442 22.6237 26.2393C23.1913 25.9575 23.5901 25.4851 23.7812 24.8682C23.8368 24.6888 23.8401 24.3409 23.8488 17.876L23.858 11.0725H14.5062H5.15447L5.16328 17.8603Z" fill="#A7A7C8"/>
</svg>
