<svg width="24" height="32" viewBox="0 0 24 32" fill="none" xmlns="http://www.w3.org/2000/svg">
<path fill-rule="evenodd" clip-rule="evenodd" d="M18.8199 0.0488563C15.8121 0.497609 13.7 1.88528 12.675 4.08603C12.2534 4.99121 12.0054 6.09916 12.0054 7.07766V7.3544L12.2841 7.33262C13.2018 7.26087 14.2327 7.02874 15.0061 6.71976C17.5214 5.71478 19.014 3.5475 19.2043 0.623701C19.2372 0.118548 19.2283 -0.00613967 19.1598 0.000228628C19.1391 0.0021881 18.9861 0.0240363 18.8199 0.0488563ZM17.3708 9.81616C16.4353 9.87651 16.0536 9.97161 13.9959 10.6572L12.1813 11.2619L11.1938 10.9337C10.6507 10.7533 9.94692 10.5191 9.62984 10.4133C8.63547 10.0816 7.89922 9.96704 6.97439 10.0002C4.70998 10.0814 2.94774 11.1743 1.51437 13.3865C-0.462261 16.4371 -0.50391 20.3035 1.38952 24.9714C2.59461 27.9422 4.1508 30.2116 5.72319 31.291C6.6163 31.9041 7.45094 32.1047 8.46582 31.9501C8.87432 31.8879 9.26133 31.764 9.8548 31.5052C10.9679 31.02 11.4637 30.8927 12.5064 30.8247C12.9402 30.7964 13.0705 30.7992 13.3183 30.8424C13.8602 30.9369 14.6569 31.1537 15.4125 31.4122C16.7524 31.8705 16.9599 31.918 17.6097 31.915C17.9982 31.9132 18.1193 31.8998 18.3739 31.8303C19.124 31.6255 19.7992 31.1715 20.552 30.3658C21.8007 29.0293 22.9947 26.9979 23.7961 24.8462C24.0142 24.2607 24.0236 24.2289 23.9779 24.2289C23.9188 24.2289 23.3329 23.9179 23.0478 23.7352C21.5541 22.7778 20.5737 21.3867 20.2327 19.7407C20.1656 19.4169 20.148 19.2259 20.1342 18.67C20.1153 17.9149 20.1483 17.4768 20.271 16.8512C20.5333 15.514 21.1604 14.3456 22.0357 13.5635C22.3292 13.3013 22.7706 12.9991 23.0412 12.8752C23.1527 12.8241 23.2444 12.775 23.2448 12.766C23.2471 12.7229 22.7978 12.1457 22.5692 11.8981C21.2333 10.4505 19.3332 9.68958 17.3708 9.81616Z" fill="#A7A7C8"/>
</svg>
